<!-- Professional healthcare team illustration -->
<svg width="400" height="300" viewBox="0 0 400 300" fill="none" xmlns="http://www.w3.org/2000/svg">
  <defs>
    <linearGradient id="bgGradient" x1="0%" y1="0%" x2="100%" y2="100%">
      <stop offset="0%" style="stop-color:#f8fafc;stop-opacity:1" />
      <stop offset="100%" style="stop-color:#e2e8f0;stop-opacity:1" />
    </linearGradient>
    <linearGradient id="personGradient" x1="0%" y1="0%" x2="100%" y2="100%">
      <stop offset="0%" style="stop-color:#3b82f6;stop-opacity:1" />
      <stop offset="100%" style="stop-color:#1d4ed8;stop-opacity:1" />
    </linearGradient>
  </defs>

  <!-- Background -->
  <rect width="400" height="300" fill="url(#bgGradient)"/>

  <!-- Medical cross -->
  <g transform="translate(320, 30)">
    <rect x="10" y="5" width="20" height="50" rx="2" fill="#ef4444"/>
    <rect x="15" y="0" width="10" height="60" rx="2" fill="#ef4444"/>
  </g>

  <!-- Person 1 -->
  <g transform="translate(50, 80)">
    <circle cx="30" cy="25" r="25" fill="url(#personGradient)"/>
    <circle cx="25" cy="20" r="3" fill="white"/>
    <circle cx="35" cy="20" r="3" fill="white"/>
    <path d="M20 35 Q30 45 40 35" stroke="white" stroke-width="2" fill="none"/>
  </g>

  <!-- Person 2 -->
  <g transform="translate(120, 80)">
    <circle cx="30" cy="25" r="25" fill="#10b981"/>
    <circle cx="25" cy="20" r="3" fill="white"/>
    <circle cx="35" cy="20" r="3" fill="white"/>
    <path d="M20 35 Q30 45 40 35" stroke="white" stroke-width="2" fill="none"/>
  </g>

  <!-- Person 3 -->
  <g transform="translate(190, 80)">
    <circle cx="30" cy="25" r="25" fill="#f59e0b"/>
    <circle cx="25" cy="20" r="3" fill="white"/>
    <circle cx="35" cy="20" r="3" fill="white"/>
    <path d="M20 35 Q30 45 40 35" stroke="white" stroke-width="2" fill="none"/>
  </g>

  <!-- Documents/Reports -->
  <g transform="translate(280, 120)">
    <rect x="0" y="0" width="60" height="80" rx="4" fill="white" stroke="#e5e7eb" stroke-width="2"/>
    <rect x="10" y="15" width="40" height="3" rx="1.5" fill="#d1d5db"/>
    <rect x="10" y="25" width="30" height="3" rx="1.5" fill="#d1d5db"/>
    <rect x="10" y="35" width="35" height="3" rx="1.5" fill="#d1d5db"/>
    <rect x="10" y="45" width="25" height="3" rx="1.5" fill="#d1d5db"/>
  </g>

  <!-- Analytics chart -->
  <g transform="translate(50, 180)">
    <rect x="0" y="40" width="20" height="40" fill="#3b82f6"/>
    <rect x="25" y="20" width="20" height="60" fill="#10b981"/>
    <rect x="50" y="10" width="20" height="70" fill="#f59e0b"/>
    <rect x="75" y="30" width="20" height="50" fill="#ef4444"/>
    <rect x="100" y="15" width="20" height="65" fill="#8b5cf6"/>
  </g>

  <!-- Medical icons -->
  <g transform="translate(280, 220)">
    <circle cx="15" cy="15" r="12" fill="#dbeafe" stroke="#3b82f6" stroke-width="2"/>
    <path d="M10 15 L12 17 L20 9" stroke="#3b82f6" stroke-width="2" fill="none"/>
  </g>

  <g transform="translate(320, 220)">
    <circle cx="15" cy="15" r="12" fill="#fef3c7" stroke="#f59e0b" stroke-width="2"/>
    <rect x="12" y="8" width="6" height="14" fill="#f59e0b"/>
    <rect x="8" y="12" width="14" height="6" fill="#f59e0b"/>
  </g>
</svg>