<svg width="96" height="96" viewBox="0 0 96 96" fill="none" xmlns="http://www.w3.org/2000/svg">
  <defs>
    <linearGradient id="pnowGradient" x1="12" y1="8" x2="84" y2="88" gradientUnits="userSpaceOnUse">
      <stop stop-color="#242ACD"/>
      <stop offset="1" stop-color="#7E83FF"/>
    </linearGradient>
    <linearGradient id="pnowAccent" x1="20" y1="42" x2="76" y2="74" gradientUnits="userSpaceOnUse">
      <stop stop-color="#FDFDFE" stop-opacity="0.85"/>
      <stop offset="1" stop-color="#C7D3FF" stop-opacity="0.25"/>
    </linearGradient>
  </defs>
  <rect x="6" y="6" width="84" height="84" rx="26" fill="url(#pnowGradient)"/>
  <path d="M32 22h14c13.255 0 24 10.745 24 24s-10.745 24-24 24h-6v14h-8V22Z" fill="white" opacity="0.92"/>
  <path d="M40 34h6c6.627 0 12 5.373 12 12s-5.373 12-12 12h-6V34Z" fill="url(#pnowGradient)"/>
  <path d="M22 46c0-4.418 3.582-8 8-8h6v32h-6c-4.418 0-8-3.582-8-8V46Z" fill="white" opacity="0.75"/>
  <path d="M60 42c8.837 0 16 7.163 16 16v2c0 8.837-7.163 16-16 16H44l16-34Z" fill="url(#pnowAccent)"/>
</svg>
