<svg width="64" height="64" viewBox="0 0 96 96" fill="none" xmlns="http://www.w3.org/2000/svg">
  <defs>
    <linearGradient id="iconGradient" x1="8" y1="8" x2="88" y2="88" gradientUnits="userSpaceOnUse">
      <stop stop-color="#242ACD"/>
      <stop offset="1" stop-color="#7E83FF"/>
    </linearGradient>
  </defs>
  <rect x="6" y="6" width="84" height="84" rx="26" fill="url(#iconGradient)"/>
  <path d="M32 22h14c13.255 0 24 10.745 24 24s-10.745 24-24 24h-6v14h-8V22Z" fill="#F8FAFC"/>
  <path d="M40 34h6c6.627 0 12 5.373 12 12s-5.373 12-12 12h-6V34Z" fill="rgba(255,255,255,0.2)"/>
  <path d="M22 46c0-4.418 3.582-8 8-8h6v32h-6c-4.418 0-8-3.582-8-8V46Z" fill="#EEF2FF" opacity="0.85"/>
</svg>
